<?xml version="1.0" standalone="no"?>
<svg xmlns="http://www.w3.org/2000/svg" width="256" height="256" xmlns:xlink="http://www.w3.org/1999/xlink" viewBox="0 0 256 256"><defs><clipPath id="clip-path-background-color-4"><rect x="0" y="0" width="256" height="256"/></clipPath><clipPath id="clip-path-dot-color-4"><rect x="55" y="15" width="5" height="5" transform="rotate(0,57.5,17.5)"/><rect x="85" y="15" width="5" height="5" transform="rotate(0,87.5,17.5)"/><rect x="95" y="15" width="5" height="5" transform="rotate(0,97.5,17.5)"/><rect x="100" y="15" width="5" height="5" transform="rotate(0,102.5,17.5)"/><rect x="110" y="15" width="5" height="5" transform="rotate(0,112.5,17.5)"/><rect x="115" y="15" width="5" height="5" transform="rotate(0,117.5,17.5)"/><rect x="125" y="15" width="5" height="5" transform="rotate(0,127.5,17.5)"/><rect x="135" y="15" width="5" height="5" transform="rotate(0,137.5,17.5)"/><rect x="140" y="15" width="5" height="5" transform="rotate(0,142.5,17.5)"/><rect x="150" y="15" width="5" height="5" transform="rotate(0,152.5,17.5)"/><rect x="165" y="15" width="5" height="5" transform="rotate(0,167.5,17.5)"/><rect x="170" y="15" width="5" height="5" transform="rotate(0,172.5,17.5)"/><rect x="195" y="15" width="5" height="5" transform="rotate(0,197.5,17.5)"/><rect x="55" y="20" width="5" height="5" transform="rotate(0,57.5,22.5)"/><rect x="60" y="20" width="5" height="5" transform="rotate(0,62.5,22.5)"/><rect x="65" y="20" width="5" height="5" transform="rotate(0,67.5,22.5)"/><rect x="70" y="20" width="5" height="5" transform="rotate(0,72.5,22.5)"/><rect x="75" y="20" width="5" height="5" transform="rotate(0,77.5,22.5)"/><rect x="85" y="20" width="5" height="5" transform="rotate(0,87.5,22.5)"/><rect x="100" y="20" width="5" height="5" transform="rotate(0,102.5,22.5)"/><rect x="105" y="20" width="5" height="5" transform="rotate(0,107.5,22.5)"/><rect x="125" y="20" width="5" height="5" transform="rotate(0,127.5,22.5)"/><rect x="135" y="20" width="5" height="5" transform="rotate(0,137.5,22.5)"/><rect x="145" y="20" width="5" height="5" transform="rotate(0,147.5,22.5)"/><rect x="150" y="20" width="5" height="5" transform="rotate(0,152.5,22.5)"/><rect x="160" y="20" width="5" height="5" transform="rotate(0,162.5,22.5)"/><rect x="165" y="20" width="5" height="5" transform="rotate(0,167.5,22.5)"/><rect x="170" y="20" width="5" height="5" transform="rotate(0,172.5,22.5)"/><rect x="190" y="20" width="5" height="5" transform="rotate(0,192.5,22.5)"/><rect x="60" y="25" width="5" height="5" transform="rotate(0,62.5,27.5)"/><rect x="75" y="25" width="5" height="5" transform="rotate(0,77.5,27.5)"/><rect x="80" y="25" width="5" height="5" transform="rotate(0,82.5,27.5)"/><rect x="85" y="25" width="5" height="5" transform="rotate(0,87.5,27.5)"/><rect x="90" y="25" width="5" height="5" transform="rotate(0,92.5,27.5)"/><rect x="110" y="25" width="5" height="5" transform="rotate(0,112.5,27.5)"/><rect x="115" y="25" width="5" height="5" transform="rotate(0,117.5,27.5)"/><rect x="120" y="25" width="5" height="5" transform="rotate(0,122.5,27.5)"/><rect x="135" y="25" width="5" height="5" transform="rotate(0,137.5,27.5)"/><rect x="140" y="25" width="5" height="5" transform="rotate(0,142.5,27.5)"/><rect x="145" y="25" width="5" height="5" transform="rotate(0,147.5,27.5)"/><rect x="150" y="25" width="5" height="5" transform="rotate(0,152.5,27.5)"/><rect x="155" y="25" width="5" height="5" transform="rotate(0,157.5,27.5)"/><rect x="170" y="25" width="5" height="5" transform="rotate(0,172.5,27.5)"/><rect x="190" y="25" width="5" height="5" transform="rotate(0,192.5,27.5)"/><rect x="55" y="30" width="5" height="5" transform="rotate(0,57.5,32.5)"/><rect x="65" y="30" width="5" height="5" transform="rotate(0,67.5,32.5)"/><rect x="70" y="30" width="5" height="5" transform="rotate(0,72.5,32.5)"/><rect x="95" y="30" width="5" height="5" transform="rotate(0,97.5,32.5)"/><rect x="110" y="30" width="5" height="5" transform="rotate(0,112.5,32.5)"/><rect x="120" y="30" width="5" height="5" transform="rotate(0,122.5,32.5)"/><rect x="125" y="30" width="5" height="5" transform="rotate(0,127.5,32.5)"/><rect x="135" y="30" width="5" height="5" transform="rotate(0,137.5,32.5)"/><rect x="140" y="30" width="5" height="5" transform="rotate(0,142.5,32.5)"/><rect x="150" y="30" width="5" height="5" transform="rotate(0,152.5,32.5)"/><rect x="165" y="30" width="5" height="5" transform="rotate(0,167.5,32.5)"/><rect x="170" y="30" width="5" height="5" transform="rotate(0,172.5,32.5)"/><rect x="180" y="30" width="5" height="5" transform="rotate(0,182.5,32.5)"/><rect x="190" y="30" width="5" height="5" transform="rotate(0,192.5,32.5)"/><rect x="195" y="30" width="5" height="5" transform="rotate(0,197.5,32.5)"/><rect x="55" y="35" width="5" height="5" transform="rotate(0,57.5,37.5)"/><rect x="70" y="35" width="5" height="5" transform="rotate(0,72.5,37.5)"/><rect x="80" y="35" width="5" height="5" transform="rotate(0,82.5,37.5)"/><rect x="85" y="35" width="5" height="5" transform="rotate(0,87.5,37.5)"/><rect x="95" y="35" width="5" height="5" transform="rotate(0,97.5,37.5)"/><rect x="105" y="35" width="5" height="5" transform="rotate(0,107.5,37.5)"/><rect x="110" y="35" width="5" height="5" transform="rotate(0,112.5,37.5)"/><rect x="115" y="35" width="5" height="5" transform="rotate(0,117.5,37.5)"/><rect x="120" y="35" width="5" height="5" transform="rotate(0,122.5,37.5)"/><rect x="125" y="35" width="5" height="5" transform="rotate(0,127.5,37.5)"/><rect x="130" y="35" width="5" height="5" transform="rotate(0,132.5,37.5)"/><rect x="135" y="35" width="5" height="5" transform="rotate(0,137.5,37.5)"/><rect x="150" y="35" width="5" height="5" transform="rotate(0,152.5,37.5)"/><rect x="160" y="35" width="5" height="5" transform="rotate(0,162.5,37.5)"/><rect x="165" y="35" width="5" height="5" transform="rotate(0,167.5,37.5)"/><rect x="175" y="35" width="5" height="5" transform="rotate(0,177.5,37.5)"/><rect x="180" y="35" width="5" height="5" transform="rotate(0,182.5,37.5)"/><rect x="185" y="35" width="5" height="5" transform="rotate(0,187.5,37.5)"/><rect x="190" y="35" width="5" height="5" transform="rotate(0,192.5,37.5)"/><rect x="195" y="35" width="5" height="5" transform="rotate(0,197.5,37.5)"/><rect x="55" y="40" width="5" height="5" transform="rotate(0,57.5,42.5)"/><rect x="60" y="40" width="5" height="5" transform="rotate(0,62.5,42.5)"/><rect x="65" y="40" width="5" height="5" transform="rotate(0,67.5,42.5)"/><rect x="80" y="40" width="5" height="5" transform="rotate(0,82.5,42.5)"/><rect x="90" y="40" width="5" height="5" transform="rotate(0,92.5,42.5)"/><rect x="105" y="40" width="5" height="5" transform="rotate(0,107.5,42.5)"/><rect x="115" y="40" width="5" height="5" transform="rotate(0,117.5,42.5)"/><rect x="135" y="40" width="5" height="5" transform="rotate(0,137.5,42.5)"/><rect x="145" y="40" width="5" height="5" transform="rotate(0,147.5,42.5)"/><rect x="165" y="40" width="5" height="5" transform="rotate(0,167.5,42.5)"/><rect x="170" y="40" width="5" height="5" transform="rotate(0,172.5,42.5)"/><rect x="175" y="40" width="5" height="5" transform="rotate(0,177.5,42.5)"/><rect x="55" y="45" width="5" height="5" transform="rotate(0,57.5,47.5)"/><rect x="65" y="45" width="5" height="5" transform="rotate(0,67.5,47.5)"/><rect x="75" y="45" width="5" height="5" transform="rotate(0,77.5,47.5)"/><rect x="85" y="45" width="5" height="5" transform="rotate(0,87.5,47.5)"/><rect x="95" y="45" width="5" height="5" transform="rotate(0,97.5,47.5)"/><rect x="105" y="45" width="5" height="5" transform="rotate(0,107.5,47.5)"/><rect x="115" y="45" width="5" height="5" transform="rotate(0,117.5,47.5)"/><rect x="125" y="45" width="5" height="5" transform="rotate(0,127.5,47.5)"/><rect x="135" y="45" width="5" height="5" transform="rotate(0,137.5,47.5)"/><rect x="145" y="45" width="5" height="5" transform="rotate(0,147.5,47.5)"/><rect x="155" y="45" width="5" height="5" transform="rotate(0,157.5,47.5)"/><rect x="165" y="45" width="5" height="5" transform="rotate(0,167.5,47.5)"/><rect x="175" y="45" width="5" height="5" transform="rotate(0,177.5,47.5)"/><rect x="185" y="45" width="5" height="5" transform="rotate(0,187.5,47.5)"/><rect x="195" y="45" width="5" height="5" transform="rotate(0,197.5,47.5)"/><rect x="60" y="50" width="5" height="5" transform="rotate(0,62.5,52.5)"/><rect x="65" y="50" width="5" height="5" transform="rotate(0,67.5,52.5)"/><rect x="85" y="50" width="5" height="5" transform="rotate(0,87.5,52.5)"/><rect x="90" y="50" width="5" height="5" transform="rotate(0,92.5,52.5)"/><rect x="100" y="50" width="5" height="5" transform="rotate(0,102.5,52.5)"/><rect x="110" y="50" width="5" height="5" transform="rotate(0,112.5,52.5)"/><rect x="115" y="50" width="5" height="5" transform="rotate(0,117.5,52.5)"/><rect x="135" y="50" width="5" height="5" transform="rotate(0,137.5,52.5)"/><rect x="140" y="50" width="5" height="5" transform="rotate(0,142.5,52.5)"/><rect x="145" y="50" width="5" height="5" transform="rotate(0,147.5,52.5)"/><rect x="150" y="50" width="5" height="5" transform="rotate(0,152.5,52.5)"/><rect x="155" y="50" width="5" height="5" transform="rotate(0,157.5,52.5)"/><rect x="170" y="50" width="5" height="5" transform="rotate(0,172.5,52.5)"/><rect x="190" y="50" width="5" height="5" transform="rotate(0,192.5,52.5)"/><rect x="30" y="55" width="5" height="5" transform="rotate(0,32.5,57.5)"/><rect x="45" y="55" width="5" height="5" transform="rotate(0,47.5,57.5)"/><rect x="65" y="55" width="5" height="5" transform="rotate(0,67.5,57.5)"/><rect x="75" y="55" width="5" height="5" transform="rotate(0,77.5,57.5)"/><rect x="80" y="55" width="5" height="5" transform="rotate(0,82.5,57.5)"/><rect x="85" y="55" width="5" height="5" transform="rotate(0,87.5,57.5)"/><rect x="95" y="55" width="5" height="5" transform="rotate(0,97.5,57.5)"/><rect x="105" y="55" width="5" height="5" transform="rotate(0,107.5,57.5)"/><rect x="110" y="55" width="5" height="5" transform="rotate(0,112.5,57.5)"/><rect x="115" y="55" width="5" height="5" transform="rotate(0,117.5,57.5)"/><rect x="120" y="55" width="5" height="5" transform="rotate(0,122.5,57.5)"/><rect x="125" y="55" width="5" height="5" transform="rotate(0,127.5,57.5)"/><rect x="130" y="55" width="5" height="5" transform="rotate(0,132.5,57.5)"/><rect x="135" y="55" width="5" height="5" transform="rotate(0,137.5,57.5)"/><rect x="150" y="55" width="5" height="5" transform="rotate(0,152.5,57.5)"/><rect x="155" y="55" width="5" height="5" transform="rotate(0,157.5,57.5)"/><rect x="170" y="55" width="5" height="5" transform="rotate(0,172.5,57.5)"/><rect x="180" y="55" width="5" height="5" transform="rotate(0,182.5,57.5)"/><rect x="190" y="55" width="5" height="5" transform="rotate(0,192.5,57.5)"/><rect x="210" y="55" width="5" height="5" transform="rotate(0,212.5,57.5)"/><rect x="215" y="55" width="5" height="5" transform="rotate(0,217.5,57.5)"/><rect x="220" y="55" width="5" height="5" transform="rotate(0,222.5,57.5)"/><rect x="230" y="55" width="5" height="5" transform="rotate(0,232.5,57.5)"/><rect x="235" y="55" width="5" height="5" transform="rotate(0,237.5,57.5)"/><rect x="15" y="60" width="5" height="5" transform="rotate(0,17.5,62.5)"/><rect x="20" y="60" width="5" height="5" transform="rotate(0,22.5,62.5)"/><rect x="25" y="60" width="5" height="5" transform="rotate(0,27.5,62.5)"/><rect x="30" y="60" width="5" height="5" transform="rotate(0,32.5,62.5)"/><rect x="55" y="60" width="5" height="5" transform="rotate(0,57.5,62.5)"/><rect x="60" y="60" width="5" height="5" transform="rotate(0,62.5,62.5)"/><rect x="75" y="60" width="5" height="5" transform="rotate(0,77.5,62.5)"/><rect x="80" y="60" width="5" height="5" transform="rotate(0,82.5,62.5)"/><rect x="85" y="60" width="5" height="5" transform="rotate(0,87.5,62.5)"/><rect x="90" y="60" width="5" height="5" transform="rotate(0,92.5,62.5)"/><rect x="100" y="60" width="5" height="5" transform="rotate(0,102.5,62.5)"/><rect x="105" y="60" width="5" height="5" transform="rotate(0,107.5,62.5)"/><rect x="115" y="60" width="5" height="5" transform="rotate(0,117.5,62.5)"/><rect x="125" y="60" width="5" height="5" transform="rotate(0,127.5,62.5)"/><rect x="135" y="60" width="5" height="5" transform="rotate(0,137.5,62.5)"/><rect x="140" y="60" width="5" height="5" transform="rotate(0,142.5,62.5)"/><rect x="155" y="60" width="5" height="5" transform="rotate(0,157.5,62.5)"/><rect x="175" y="60" width="5" height="5" transform="rotate(0,177.5,62.5)"/><rect x="180" y="60" width="5" height="5" transform="rotate(0,182.5,62.5)"/><rect x="210" y="60" width="5" height="5" transform="rotate(0,212.5,62.5)"/><rect x="220" y="60" width="5" height="5" transform="rotate(0,222.5,62.5)"/><rect x="225" y="60" width="5" height="5" transform="rotate(0,227.5,62.5)"/><rect x="235" y="60" width="5" height="5" transform="rotate(0,237.5,62.5)"/><rect x="15" y="65" width="5" height="5" transform="rotate(0,17.5,67.5)"/><rect x="20" y="65" width="5" height="5" transform="rotate(0,22.5,67.5)"/><rect x="30" y="65" width="5" height="5" transform="rotate(0,32.5,67.5)"/><rect x="45" y="65" width="5" height="5" transform="rotate(0,47.5,67.5)"/><rect x="55" y="65" width="5" height="5" transform="rotate(0,57.5,67.5)"/><rect x="65" y="65" width="5" height="5" transform="rotate(0,67.5,67.5)"/><rect x="75" y="65" width="5" height="5" transform="rotate(0,77.5,67.5)"/><rect x="80" y="65" width="5" height="5" transform="rotate(0,82.5,67.5)"/><rect x="85" y="65" width="5" height="5" transform="rotate(0,87.5,67.5)"/><rect x="90" y="65" width="5" height="5" transform="rotate(0,92.5,67.5)"/><rect x="105" y="65" width="5" height="5" transform="rotate(0,107.5,67.5)"/><rect x="110" y="65" width="5" height="5" transform="rotate(0,112.5,67.5)"/><rect x="125" y="65" width="5" height="5" transform="rotate(0,127.5,67.5)"/><rect x="130" y="65" width="5" height="5" transform="rotate(0,132.5,67.5)"/><rect x="150" y="65" width="5" height="5" transform="rotate(0,152.5,67.5)"/><rect x="155" y="65" width="5" height="5" transform="rotate(0,157.5,67.5)"/><rect x="160" y="65" width="5" height="5" transform="rotate(0,162.5,67.5)"/><rect x="185" y="65" width="5" height="5" transform="rotate(0,187.5,67.5)"/><rect x="200" y="65" width="5" height="5" transform="rotate(0,202.5,67.5)"/><rect x="215" y="65" width="5" height="5" transform="rotate(0,217.5,67.5)"/><rect x="230" y="65" width="5" height="5" transform="rotate(0,232.5,67.5)"/><rect x="235" y="65" width="5" height="5" transform="rotate(0,237.5,67.5)"/><rect x="25" y="70" width="5" height="5" transform="rotate(0,27.5,72.5)"/><rect x="30" y="70" width="5" height="5" transform="rotate(0,32.5,72.5)"/><rect x="35" y="70" width="5" height="5" transform="rotate(0,37.5,72.5)"/><rect x="55" y="70" width="5" height="5" transform="rotate(0,57.5,72.5)"/><rect x="65" y="70" width="5" height="5" transform="rotate(0,67.5,72.5)"/><rect x="70" y="70" width="5" height="5" transform="rotate(0,72.5,72.5)"/><rect x="85" y="70" width="5" height="5" transform="rotate(0,87.5,72.5)"/><rect x="95" y="70" width="5" height="5" transform="rotate(0,97.5,72.5)"/><rect x="110" y="70" width="5" height="5" transform="rotate(0,112.5,72.5)"/><rect x="115" y="70" width="5" height="5" transform="rotate(0,117.5,72.5)"/><rect x="120" y="70" width="5" height="5" transform="rotate(0,122.5,72.5)"/><rect x="135" y="70" width="5" height="5" transform="rotate(0,137.5,72.5)"/><rect x="145" y="70" width="5" height="5" transform="rotate(0,147.5,72.5)"/><rect x="150" y="70" width="5" height="5" transform="rotate(0,152.5,72.5)"/><rect x="155" y="70" width="5" height="5" transform="rotate(0,157.5,72.5)"/><rect x="160" y="70" width="5" height="5" transform="rotate(0,162.5,72.5)"/><rect x="170" y="70" width="5" height="5" transform="rotate(0,172.5,72.5)"/><rect x="180" y="70" width="5" height="5" transform="rotate(0,182.5,72.5)"/><rect x="190" y="70" width="5" height="5" transform="rotate(0,192.5,72.5)"/><rect x="195" y="70" width="5" height="5" transform="rotate(0,197.5,72.5)"/><rect x="200" y="70" width="5" height="5" transform="rotate(0,202.5,72.5)"/><rect x="205" y="70" width="5" height="5" transform="rotate(0,207.5,72.5)"/><rect x="210" y="70" width="5" height="5" transform="rotate(0,212.5,72.5)"/><rect x="220" y="70" width="5" height="5" transform="rotate(0,222.5,72.5)"/><rect x="230" y="70" width="5" height="5" transform="rotate(0,232.5,72.5)"/><rect x="235" y="70" width="5" height="5" transform="rotate(0,237.5,72.5)"/><rect x="20" y="75" width="5" height="5" transform="rotate(0,22.5,77.5)"/><rect x="30" y="75" width="5" height="5" transform="rotate(0,32.5,77.5)"/><rect x="45" y="75" width="5" height="5" transform="rotate(0,47.5,77.5)"/><rect x="55" y="75" width="5" height="5" transform="rotate(0,57.5,77.5)"/><rect x="60" y="75" width="5" height="5" transform="rotate(0,62.5,77.5)"/><rect x="65" y="75" width="5" height="5" transform="rotate(0,67.5,77.5)"/><rect x="70" y="75" width="5" height="5" transform="rotate(0,72.5,77.5)"/><rect x="80" y="75" width="5" height="5" transform="rotate(0,82.5,77.5)"/><rect x="90" y="75" width="5" height="5" transform="rotate(0,92.5,77.5)"/><rect x="115" y="75" width="5" height="5" transform="rotate(0,117.5,77.5)"/><rect x="125" y="75" width="5" height="5" transform="rotate(0,127.5,77.5)"/><rect x="130" y="75" width="5" height="5" transform="rotate(0,132.5,77.5)"/><rect x="135" y="75" width="5" height="5" transform="rotate(0,137.5,77.5)"/><rect x="140" y="75" width="5" height="5" transform="rotate(0,142.5,77.5)"/><rect x="160" y="75" width="5" height="5" transform="rotate(0,162.5,77.5)"/><rect x="170" y="75" width="5" height="5" transform="rotate(0,172.5,77.5)"/><rect x="175" y="75" width="5" height="5" transform="rotate(0,177.5,77.5)"/><rect x="180" y="75" width="5" height="5" transform="rotate(0,182.5,77.5)"/><rect x="185" y="75" width="5" height="5" transform="rotate(0,187.5,77.5)"/><rect x="190" y="75" width="5" height="5" transform="rotate(0,192.5,77.5)"/><rect x="205" y="75" width="5" height="5" transform="rotate(0,207.5,77.5)"/><rect x="210" y="75" width="5" height="5" transform="rotate(0,212.5,77.5)"/><rect x="215" y="75" width="5" height="5" transform="rotate(0,217.5,77.5)"/><rect x="20" y="80" width="5" height="5" transform="rotate(0,22.5,82.5)"/><rect x="25" y="80" width="5" height="5" transform="rotate(0,27.5,82.5)"/><rect x="30" y="80" width="5" height="5" transform="rotate(0,32.5,82.5)"/><rect x="40" y="80" width="5" height="5" transform="rotate(0,42.5,82.5)"/><rect x="50" y="80" width="5" height="5" transform="rotate(0,52.5,82.5)"/><rect x="70" y="80" width="5" height="5" transform="rotate(0,72.5,82.5)"/><rect x="80" y="80" width="5" height="5" transform="rotate(0,82.5,82.5)"/><rect x="125" y="80" width="5" height="5" transform="rotate(0,127.5,82.5)"/><rect x="130" y="80" width="5" height="5" transform="rotate(0,132.5,82.5)"/><rect x="155" y="80" width="5" height="5" transform="rotate(0,157.5,82.5)"/><rect x="160" y="80" width="5" height="5" transform="rotate(0,162.5,82.5)"/><rect x="170" y="80" width="5" height="5" transform="rotate(0,172.5,82.5)"/><rect x="185" y="80" width="5" height="5" transform="rotate(0,187.5,82.5)"/><rect x="200" y="80" width="5" height="5" transform="rotate(0,202.5,82.5)"/><rect x="210" y="80" width="5" height="5" transform="rotate(0,212.5,82.5)"/><rect x="215" y="80" width="5" height="5" transform="rotate(0,217.5,82.5)"/><rect x="220" y="80" width="5" height="5" transform="rotate(0,222.5,82.5)"/><rect x="225" y="80" width="5" height="5" transform="rotate(0,227.5,82.5)"/><rect x="235" y="80" width="5" height="5" transform="rotate(0,237.5,82.5)"/><rect x="30" y="85" width="5" height="5" transform="rotate(0,32.5,87.5)"/><rect x="35" y="85" width="5" height="5" transform="rotate(0,37.5,87.5)"/><rect x="40" y="85" width="5" height="5" transform="rotate(0,42.5,87.5)"/><rect x="45" y="85" width="5" height="5" transform="rotate(0,47.5,87.5)"/><rect x="55" y="85" width="5" height="5" transform="rotate(0,57.5,87.5)"/><rect x="70" y="85" width="5" height="5" transform="rotate(0,72.5,87.5)"/><rect x="80" y="85" width="5" height="5" transform="rotate(0,82.5,87.5)"/><rect x="85" y="85" width="5" height="5" transform="rotate(0,87.5,87.5)"/><rect x="105" y="85" width="5" height="5" transform="rotate(0,107.5,87.5)"/><rect x="130" y="85" width="5" height="5" transform="rotate(0,132.5,87.5)"/><rect x="140" y="85" width="5" height="5" transform="rotate(0,142.5,87.5)"/><rect x="150" y="85" width="5" height="5" transform="rotate(0,152.5,87.5)"/><rect x="175" y="85" width="5" height="5" transform="rotate(0,177.5,87.5)"/><rect x="195" y="85" width="5" height="5" transform="rotate(0,197.5,87.5)"/><rect x="200" y="85" width="5" height="5" transform="rotate(0,202.5,87.5)"/><rect x="205" y="85" width="5" height="5" transform="rotate(0,207.5,87.5)"/><rect x="210" y="85" width="5" height="5" transform="rotate(0,212.5,87.5)"/><rect x="215" y="85" width="5" height="5" transform="rotate(0,217.5,87.5)"/><rect x="220" y="85" width="5" height="5" transform="rotate(0,222.5,87.5)"/><rect x="225" y="85" width="5" height="5" transform="rotate(0,227.5,87.5)"/><rect x="230" y="85" width="5" height="5" transform="rotate(0,232.5,87.5)"/><rect x="15" y="90" width="5" height="5" transform="rotate(0,17.5,92.5)"/><rect x="20" y="90" width="5" height="5" transform="rotate(0,22.5,92.5)"/><rect x="35" y="90" width="5" height="5" transform="rotate(0,37.5,92.5)"/><rect x="55" y="90" width="5" height="5" transform="rotate(0,57.5,92.5)"/><rect x="65" y="90" width="5" height="5" transform="rotate(0,67.5,92.5)"/><rect x="70" y="90" width="5" height="5" transform="rotate(0,72.5,92.5)"/><rect x="85" y="90" width="5" height="5" transform="rotate(0,87.5,92.5)"/><rect x="90" y="90" width="5" height="5" transform="rotate(0,92.5,92.5)"/><rect x="95" y="90" width="5" height="5" transform="rotate(0,97.5,92.5)"/><rect x="110" y="90" width="5" height="5" transform="rotate(0,112.5,92.5)"/><rect x="125" y="90" width="5" height="5" transform="rotate(0,127.5,92.5)"/><rect x="130" y="90" width="5" height="5" transform="rotate(0,132.5,92.5)"/><rect x="145" y="90" width="5" height="5" transform="rotate(0,147.5,92.5)"/><rect x="150" y="90" width="5" height="5" transform="rotate(0,152.5,92.5)"/><rect x="155" y="90" width="5" height="5" transform="rotate(0,157.5,92.5)"/><rect x="165" y="90" width="5" height="5" transform="rotate(0,167.5,92.5)"/><rect x="170" y="90" width="5" height="5" transform="rotate(0,172.5,92.5)"/><rect x="175" y="90" width="5" height="5" transform="rotate(0,177.5,92.5)"/><rect x="180" y="90" width="5" height="5" transform="rotate(0,182.5,92.5)"/><rect x="190" y="90" width="5" height="5" transform="rotate(0,192.5,92.5)"/><rect x="200" y="90" width="5" height="5" transform="rotate(0,202.5,92.5)"/><rect x="215" y="90" width="5" height="5" transform="rotate(0,217.5,92.5)"/><rect x="235" y="90" width="5" height="5" transform="rotate(0,237.5,92.5)"/><rect x="15" y="95" width="5" height="5" transform="rotate(0,17.5,97.5)"/><rect x="20" y="95" width="5" height="5" transform="rotate(0,22.5,97.5)"/><rect x="45" y="95" width="5" height="5" transform="rotate(0,47.5,97.5)"/><rect x="55" y="95" width="5" height="5" transform="rotate(0,57.5,97.5)"/><rect x="70" y="95" width="5" height="5" transform="rotate(0,72.5,97.5)"/><rect x="85" y="95" width="5" height="5" transform="rotate(0,87.5,97.5)"/><rect x="95" y="95" width="5" height="5" transform="rotate(0,97.5,97.5)"/><rect x="105" y="95" width="5" height="5" transform="rotate(0,107.5,97.5)"/><rect x="120" y="95" width="5" height="5" transform="rotate(0,122.5,97.5)"/><rect x="130" y="95" width="5" height="5" transform="rotate(0,132.5,97.5)"/><rect x="135" y="95" width="5" height="5" transform="rotate(0,137.5,97.5)"/><rect x="140" y="95" width="5" height="5" transform="rotate(0,142.5,97.5)"/><rect x="175" y="95" width="5" height="5" transform="rotate(0,177.5,97.5)"/><rect x="180" y="95" width="5" height="5" transform="rotate(0,182.5,97.5)"/><rect x="185" y="95" width="5" height="5" transform="rotate(0,187.5,97.5)"/><rect x="205" y="95" width="5" height="5" transform="rotate(0,207.5,97.5)"/><rect x="210" y="95" width="5" height="5" transform="rotate(0,212.5,97.5)"/><rect x="220" y="95" width="5" height="5" transform="rotate(0,222.5,97.5)"/><rect x="25" y="100" width="5" height="5" transform="rotate(0,27.5,102.5)"/><rect x="60" y="100" width="5" height="5" transform="rotate(0,62.5,102.5)"/><rect x="65" y="100" width="5" height="5" transform="rotate(0,67.5,102.5)"/><rect x="70" y="100" width="5" height="5" transform="rotate(0,72.5,102.5)"/><rect x="75" y="100" width="5" height="5" transform="rotate(0,77.5,102.5)"/><rect x="80" y="100" width="5" height="5" transform="rotate(0,82.5,102.5)"/><rect x="85" y="100" width="5" height="5" transform="rotate(0,87.5,102.5)"/><rect x="95" y="100" width="5" height="5" transform="rotate(0,97.5,102.5)"/><rect x="105" y="100" width="5" height="5" transform="rotate(0,107.5,102.5)"/><rect x="110" y="100" width="5" height="5" transform="rotate(0,112.5,102.5)"/><rect x="115" y="100" width="5" height="5" transform="rotate(0,117.5,102.5)"/><rect x="120" y="100" width="5" height="5" transform="rotate(0,122.5,102.5)"/><rect x="125" y="100" width="5" height="5" transform="rotate(0,127.5,102.5)"/><rect x="130" y="100" width="5" height="5" transform="rotate(0,132.5,102.5)"/><rect x="155" y="100" width="5" height="5" transform="rotate(0,157.5,102.5)"/><rect x="160" y="100" width="5" height="5" transform="rotate(0,162.5,102.5)"/><rect x="165" y="100" width="5" height="5" transform="rotate(0,167.5,102.5)"/><rect x="190" y="100" width="5" height="5" transform="rotate(0,192.5,102.5)"/><rect x="205" y="100" width="5" height="5" transform="rotate(0,207.5,102.5)"/><rect x="215" y="100" width="5" height="5" transform="rotate(0,217.5,102.5)"/><rect x="220" y="100" width="5" height="5" transform="rotate(0,222.5,102.5)"/><rect x="225" y="100" width="5" height="5" transform="rotate(0,227.5,102.5)"/><rect x="230" y="100" width="5" height="5" transform="rotate(0,232.5,102.5)"/><rect x="15" y="105" width="5" height="5" transform="rotate(0,17.5,107.5)"/><rect x="45" y="105" width="5" height="5" transform="rotate(0,47.5,107.5)"/><rect x="80" y="105" width="5" height="5" transform="rotate(0,82.5,107.5)"/><rect x="105" y="105" width="5" height="5" transform="rotate(0,107.5,107.5)"/><rect x="110" y="105" width="5" height="5" transform="rotate(0,112.5,107.5)"/><rect x="115" y="105" width="5" height="5" transform="rotate(0,117.5,107.5)"/><rect x="130" y="105" width="5" height="5" transform="rotate(0,132.5,107.5)"/><rect x="135" y="105" width="5" height="5" transform="rotate(0,137.5,107.5)"/><rect x="140" y="105" width="5" height="5" transform="rotate(0,142.5,107.5)"/><rect x="150" y="105" width="5" height="5" transform="rotate(0,152.5,107.5)"/><rect x="165" y="105" width="5" height="5" transform="rotate(0,167.5,107.5)"/><rect x="175" y="105" width="5" height="5" transform="rotate(0,177.5,107.5)"/><rect x="180" y="105" width="5" height="5" transform="rotate(0,182.5,107.5)"/><rect x="215" y="105" width="5" height="5" transform="rotate(0,217.5,107.5)"/><rect x="230" y="105" width="5" height="5" transform="rotate(0,232.5,107.5)"/><rect x="235" y="105" width="5" height="5" transform="rotate(0,237.5,107.5)"/><rect x="20" y="110" width="5" height="5" transform="rotate(0,22.5,112.5)"/><rect x="30" y="110" width="5" height="5" transform="rotate(0,32.5,112.5)"/><rect x="35" y="110" width="5" height="5" transform="rotate(0,37.5,112.5)"/><rect x="50" y="110" width="5" height="5" transform="rotate(0,52.5,112.5)"/><rect x="55" y="110" width="5" height="5" transform="rotate(0,57.5,112.5)"/><rect x="65" y="110" width="5" height="5" transform="rotate(0,67.5,112.5)"/><rect x="80" y="110" width="5" height="5" transform="rotate(0,82.5,112.5)"/><rect x="85" y="110" width="5" height="5" transform="rotate(0,87.5,112.5)"/><rect x="95" y="110" width="5" height="5" transform="rotate(0,97.5,112.5)"/><rect x="100" y="110" width="5" height="5" transform="rotate(0,102.5,112.5)"/><rect x="105" y="110" width="5" height="5" transform="rotate(0,107.5,112.5)"/><rect x="110" y="110" width="5" height="5" transform="rotate(0,112.5,112.5)"/><rect x="115" y="110" width="5" height="5" transform="rotate(0,117.5,112.5)"/><rect x="120" y="110" width="5" height="5" transform="rotate(0,122.5,112.5)"/><rect x="135" y="110" width="5" height="5" transform="rotate(0,137.5,112.5)"/><rect x="145" y="110" width="5" height="5" transform="rotate(0,147.5,112.5)"/><rect x="150" y="110" width="5" height="5" transform="rotate(0,152.5,112.5)"/><rect x="155" y="110" width="5" height="5" transform="rotate(0,157.5,112.5)"/><rect x="160" y="110" width="5" height="5" transform="rotate(0,162.5,112.5)"/><rect x="170" y="110" width="5" height="5" transform="rotate(0,172.5,112.5)"/><rect x="175" y="110" width="5" height="5" transform="rotate(0,177.5,112.5)"/><rect x="180" y="110" width="5" height="5" transform="rotate(0,182.5,112.5)"/><rect x="190" y="110" width="5" height="5" transform="rotate(0,192.5,112.5)"/><rect x="210" y="110" width="5" height="5" transform="rotate(0,212.5,112.5)"/><rect x="230" y="110" width="5" height="5" transform="rotate(0,232.5,112.5)"/><rect x="15" y="115" width="5" height="5" transform="rotate(0,17.5,117.5)"/><rect x="20" y="115" width="5" height="5" transform="rotate(0,22.5,117.5)"/><rect x="35" y="115" width="5" height="5" transform="rotate(0,37.5,117.5)"/><rect x="40" y="115" width="5" height="5" transform="rotate(0,42.5,117.5)"/><rect x="45" y="115" width="5" height="5" transform="rotate(0,47.5,117.5)"/><rect x="50" y="115" width="5" height="5" transform="rotate(0,52.5,117.5)"/><rect x="55" y="115" width="5" height="5" transform="rotate(0,57.5,117.5)"/><rect x="60" y="115" width="5" height="5" transform="rotate(0,62.5,117.5)"/><rect x="95" y="115" width="5" height="5" transform="rotate(0,97.5,117.5)"/><rect x="100" y="115" width="5" height="5" transform="rotate(0,102.5,117.5)"/><rect x="110" y="115" width="5" height="5" transform="rotate(0,112.5,117.5)"/><rect x="115" y="115" width="5" height="5" transform="rotate(0,117.5,117.5)"/><rect x="120" y="115" width="5" height="5" transform="rotate(0,122.5,117.5)"/><rect x="125" y="115" width="5" height="5" transform="rotate(0,127.5,117.5)"/><rect x="130" y="115" width="5" height="5" transform="rotate(0,132.5,117.5)"/><rect x="135" y="115" width="5" height="5" transform="rotate(0,137.5,117.5)"/><rect x="140" y="115" width="5" height="5" transform="rotate(0,142.5,117.5)"/><rect x="165" y="115" width="5" height="5" transform="rotate(0,167.5,117.5)"/><rect x="170" y="115" width="5" height="5" transform="rotate(0,172.5,117.5)"/><rect x="190" y="115" width="5" height="5" transform="rotate(0,192.5,117.5)"/><rect x="195" y="115" width="5" height="5" transform="rotate(0,197.5,117.5)"/><rect x="200" y="115" width="5" height="5" transform="rotate(0,202.5,117.5)"/><rect x="205" y="115" width="5" height="5" transform="rotate(0,207.5,117.5)"/><rect x="210" y="115" width="5" height="5" transform="rotate(0,212.5,117.5)"/><rect x="215" y="115" width="5" height="5" transform="rotate(0,217.5,117.5)"/><rect x="235" y="115" width="5" height="5" transform="rotate(0,237.5,117.5)"/><rect x="15" y="120" width="5" height="5" transform="rotate(0,17.5,122.5)"/><rect x="20" y="120" width="5" height="5" transform="rotate(0,22.5,122.5)"/><rect x="25" y="120" width="5" height="5" transform="rotate(0,27.5,122.5)"/><rect x="35" y="120" width="5" height="5" transform="rotate(0,37.5,122.5)"/><rect x="55" y="120" width="5" height="5" transform="rotate(0,57.5,122.5)"/><rect x="60" y="120" width="5" height="5" transform="rotate(0,62.5,122.5)"/><rect x="65" y="120" width="5" height="5" transform="rotate(0,67.5,122.5)"/><rect x="70" y="120" width="5" height="5" transform="rotate(0,72.5,122.5)"/><rect x="80" y="120" width="5" height="5" transform="rotate(0,82.5,122.5)"/><rect x="85" y="120" width="5" height="5" transform="rotate(0,87.5,122.5)"/><rect x="95" y="120" width="5" height="5" transform="rotate(0,97.5,122.5)"/><rect x="100" y="120" width="5" height="5" transform="rotate(0,102.5,122.5)"/><rect x="115" y="120" width="5" height="5" transform="rotate(0,117.5,122.5)"/><rect x="135" y="120" width="5" height="5" transform="rotate(0,137.5,122.5)"/><rect x="145" y="120" width="5" height="5" transform="rotate(0,147.5,122.5)"/><rect x="150" y="120" width="5" height="5" transform="rotate(0,152.5,122.5)"/><rect x="155" y="120" width="5" height="5" transform="rotate(0,157.5,122.5)"/><rect x="160" y="120" width="5" height="5" transform="rotate(0,162.5,122.5)"/><rect x="175" y="120" width="5" height="5" transform="rotate(0,177.5,122.5)"/><rect x="195" y="120" width="5" height="5" transform="rotate(0,197.5,122.5)"/><rect x="215" y="120" width="5" height="5" transform="rotate(0,217.5,122.5)"/><rect x="220" y="120" width="5" height="5" transform="rotate(0,222.5,122.5)"/><rect x="230" y="120" width="5" height="5" transform="rotate(0,232.5,122.5)"/><rect x="235" y="120" width="5" height="5" transform="rotate(0,237.5,122.5)"/><rect x="20" y="125" width="5" height="5" transform="rotate(0,22.5,127.5)"/><rect x="35" y="125" width="5" height="5" transform="rotate(0,37.5,127.5)"/><rect x="45" y="125" width="5" height="5" transform="rotate(0,47.5,127.5)"/><rect x="55" y="125" width="5" height="5" transform="rotate(0,57.5,127.5)"/><rect x="65" y="125" width="5" height="5" transform="rotate(0,67.5,127.5)"/><rect x="80" y="125" width="5" height="5" transform="rotate(0,82.5,127.5)"/><rect x="85" y="125" width="5" height="5" transform="rotate(0,87.5,127.5)"/><rect x="90" y="125" width="5" height="5" transform="rotate(0,92.5,127.5)"/><rect x="110" y="125" width="5" height="5" transform="rotate(0,112.5,127.5)"/><rect x="115" y="125" width="5" height="5" transform="rotate(0,117.5,127.5)"/><rect x="125" y="125" width="5" height="5" transform="rotate(0,127.5,127.5)"/><rect x="135" y="125" width="5" height="5" transform="rotate(0,137.5,127.5)"/><rect x="140" y="125" width="5" height="5" transform="rotate(0,142.5,127.5)"/><rect x="150" y="125" width="5" height="5" transform="rotate(0,152.5,127.5)"/><rect x="160" y="125" width="5" height="5" transform="rotate(0,162.5,127.5)"/><rect x="165" y="125" width="5" height="5" transform="rotate(0,167.5,127.5)"/><rect x="175" y="125" width="5" height="5" transform="rotate(0,177.5,127.5)"/><rect x="185" y="125" width="5" height="5" transform="rotate(0,187.5,127.5)"/><rect x="195" y="125" width="5" height="5" transform="rotate(0,197.5,127.5)"/><rect x="205" y="125" width="5" height="5" transform="rotate(0,207.5,127.5)"/><rect x="215" y="125" width="5" height="5" transform="rotate(0,217.5,127.5)"/><rect x="220" y="125" width="5" height="5" transform="rotate(0,222.5,127.5)"/><rect x="225" y="125" width="5" height="5" transform="rotate(0,227.5,127.5)"/><rect x="235" y="125" width="5" height="5" transform="rotate(0,237.5,127.5)"/><rect x="35" y="130" width="5" height="5" transform="rotate(0,37.5,132.5)"/><rect x="55" y="130" width="5" height="5" transform="rotate(0,57.5,132.5)"/><rect x="65" y="130" width="5" height="5" transform="rotate(0,67.5,132.5)"/><rect x="75" y="130" width="5" height="5" transform="rotate(0,77.5,132.5)"/><rect x="85" y="130" width="5" height="5" transform="rotate(0,87.5,132.5)"/><rect x="95" y="130" width="5" height="5" transform="rotate(0,97.5,132.5)"/><rect x="100" y="130" width="5" height="5" transform="rotate(0,102.5,132.5)"/><rect x="105" y="130" width="5" height="5" transform="rotate(0,107.5,132.5)"/><rect x="115" y="130" width="5" height="5" transform="rotate(0,117.5,132.5)"/><rect x="135" y="130" width="5" height="5" transform="rotate(0,137.5,132.5)"/><rect x="155" y="130" width="5" height="5" transform="rotate(0,157.5,132.5)"/><rect x="160" y="130" width="5" height="5" transform="rotate(0,162.5,132.5)"/><rect x="170" y="130" width="5" height="5" transform="rotate(0,172.5,132.5)"/><rect x="175" y="130" width="5" height="5" transform="rotate(0,177.5,132.5)"/><rect x="185" y="130" width="5" height="5" transform="rotate(0,187.5,132.5)"/><rect x="195" y="130" width="5" height="5" transform="rotate(0,197.5,132.5)"/><rect x="215" y="130" width="5" height="5" transform="rotate(0,217.5,132.5)"/><rect x="230" y="130" width="5" height="5" transform="rotate(0,232.5,132.5)"/><rect x="235" y="130" width="5" height="5" transform="rotate(0,237.5,132.5)"/><rect x="20" y="135" width="5" height="5" transform="rotate(0,22.5,137.5)"/><rect x="35" y="135" width="5" height="5" transform="rotate(0,37.5,137.5)"/><rect x="40" y="135" width="5" height="5" transform="rotate(0,42.5,137.5)"/><rect x="45" y="135" width="5" height="5" transform="rotate(0,47.5,137.5)"/><rect x="50" y="135" width="5" height="5" transform="rotate(0,52.5,137.5)"/><rect x="55" y="135" width="5" height="5" transform="rotate(0,57.5,137.5)"/><rect x="60" y="135" width="5" height="5" transform="rotate(0,62.5,137.5)"/><rect x="80" y="135" width="5" height="5" transform="rotate(0,82.5,137.5)"/><rect x="85" y="135" width="5" height="5" transform="rotate(0,87.5,137.5)"/><rect x="95" y="135" width="5" height="5" transform="rotate(0,97.5,137.5)"/><rect x="105" y="135" width="5" height="5" transform="rotate(0,107.5,137.5)"/><rect x="110" y="135" width="5" height="5" transform="rotate(0,112.5,137.5)"/><rect x="115" y="135" width="5" height="5" transform="rotate(0,117.5,137.5)"/><rect x="120" y="135" width="5" height="5" transform="rotate(0,122.5,137.5)"/><rect x="125" y="135" width="5" height="5" transform="rotate(0,127.5,137.5)"/><rect x="130" y="135" width="5" height="5" transform="rotate(0,132.5,137.5)"/><rect x="135" y="135" width="5" height="5" transform="rotate(0,137.5,137.5)"/><rect x="160" y="135" width="5" height="5" transform="rotate(0,162.5,137.5)"/><rect x="170" y="135" width="5" height="5" transform="rotate(0,172.5,137.5)"/><rect x="180" y="135" width="5" height="5" transform="rotate(0,182.5,137.5)"/><rect x="185" y="135" width="5" height="5" transform="rotate(0,187.5,137.5)"/><rect x="195" y="135" width="5" height="5" transform="rotate(0,197.5,137.5)"/><rect x="200" y="135" width="5" height="5" transform="rotate(0,202.5,137.5)"/><rect x="205" y="135" width="5" height="5" transform="rotate(0,207.5,137.5)"/><rect x="210" y="135" width="5" height="5" transform="rotate(0,212.5,137.5)"/><rect x="215" y="135" width="5" height="5" transform="rotate(0,217.5,137.5)"/><rect x="220" y="135" width="5" height="5" transform="rotate(0,222.5,137.5)"/><rect x="230" y="135" width="5" height="5" transform="rotate(0,232.5,137.5)"/><rect x="50" y="140" width="5" height="5" transform="rotate(0,52.5,142.5)"/><rect x="55" y="140" width="5" height="5" transform="rotate(0,57.5,142.5)"/><rect x="60" y="140" width="5" height="5" transform="rotate(0,62.5,142.5)"/><rect x="70" y="140" width="5" height="5" transform="rotate(0,72.5,142.5)"/><rect x="75" y="140" width="5" height="5" transform="rotate(0,77.5,142.5)"/><rect x="80" y="140" width="5" height="5" transform="rotate(0,82.5,142.5)"/><rect x="90" y="140" width="5" height="5" transform="rotate(0,92.5,142.5)"/><rect x="105" y="140" width="5" height="5" transform="rotate(0,107.5,142.5)"/><rect x="110" y="140" width="5" height="5" transform="rotate(0,112.5,142.5)"/><rect x="115" y="140" width="5" height="5" transform="rotate(0,117.5,142.5)"/><rect x="120" y="140" width="5" height="5" transform="rotate(0,122.5,142.5)"/><rect x="135" y="140" width="5" height="5" transform="rotate(0,137.5,142.5)"/><rect x="145" y="140" width="5" height="5" transform="rotate(0,147.5,142.5)"/><rect x="155" y="140" width="5" height="5" transform="rotate(0,157.5,142.5)"/><rect x="160" y="140" width="5" height="5" transform="rotate(0,162.5,142.5)"/><rect x="175" y="140" width="5" height="5" transform="rotate(0,177.5,142.5)"/><rect x="180" y="140" width="5" height="5" transform="rotate(0,182.5,142.5)"/><rect x="185" y="140" width="5" height="5" transform="rotate(0,187.5,142.5)"/><rect x="200" y="140" width="5" height="5" transform="rotate(0,202.5,142.5)"/><rect x="205" y="140" width="5" height="5" transform="rotate(0,207.5,142.5)"/><rect x="215" y="140" width="5" height="5" transform="rotate(0,217.5,142.5)"/><rect x="225" y="140" width="5" height="5" transform="rotate(0,227.5,142.5)"/><rect x="230" y="140" width="5" height="5" transform="rotate(0,232.5,142.5)"/><rect x="235" y="140" width="5" height="5" transform="rotate(0,237.5,142.5)"/><rect x="25" y="145" width="5" height="5" transform="rotate(0,27.5,147.5)"/><rect x="30" y="145" width="5" height="5" transform="rotate(0,32.5,147.5)"/><rect x="40" y="145" width="5" height="5" transform="rotate(0,42.5,147.5)"/><rect x="45" y="145" width="5" height="5" transform="rotate(0,47.5,147.5)"/><rect x="50" y="145" width="5" height="5" transform="rotate(0,52.5,147.5)"/><rect x="65" y="145" width="5" height="5" transform="rotate(0,67.5,147.5)"/><rect x="70" y="145" width="5" height="5" transform="rotate(0,72.5,147.5)"/><rect x="85" y="145" width="5" height="5" transform="rotate(0,87.5,147.5)"/><rect x="100" y="145" width="5" height="5" transform="rotate(0,102.5,147.5)"/><rect x="105" y="145" width="5" height="5" transform="rotate(0,107.5,147.5)"/><rect x="115" y="145" width="5" height="5" transform="rotate(0,117.5,147.5)"/><rect x="140" y="145" width="5" height="5" transform="rotate(0,142.5,147.5)"/><rect x="170" y="145" width="5" height="5" transform="rotate(0,172.5,147.5)"/><rect x="175" y="145" width="5" height="5" transform="rotate(0,177.5,147.5)"/><rect x="180" y="145" width="5" height="5" transform="rotate(0,182.5,147.5)"/><rect x="195" y="145" width="5" height="5" transform="rotate(0,197.5,147.5)"/><rect x="200" y="145" width="5" height="5" transform="rotate(0,202.5,147.5)"/><rect x="215" y="145" width="5" height="5" transform="rotate(0,217.5,147.5)"/><rect x="225" y="145" width="5" height="5" transform="rotate(0,227.5,147.5)"/><rect x="230" y="145" width="5" height="5" transform="rotate(0,232.5,147.5)"/><rect x="20" y="150" width="5" height="5" transform="rotate(0,22.5,152.5)"/><rect x="25" y="150" width="5" height="5" transform="rotate(0,27.5,152.5)"/><rect x="30" y="150" width="5" height="5" transform="rotate(0,32.5,152.5)"/><rect x="40" y="150" width="5" height="5" transform="rotate(0,42.5,152.5)"/><rect x="55" y="150" width="5" height="5" transform="rotate(0,57.5,152.5)"/><rect x="65" y="150" width="5" height="5" transform="rotate(0,67.5,152.5)"/><rect x="80" y="150" width="5" height="5" transform="rotate(0,82.5,152.5)"/><rect x="90" y="150" width="5" height="5" transform="rotate(0,92.5,152.5)"/><rect x="95" y="150" width="5" height="5" transform="rotate(0,97.5,152.5)"/><rect x="115" y="150" width="5" height="5" transform="rotate(0,117.5,152.5)"/><rect x="120" y="150" width="5" height="5" transform="rotate(0,122.5,152.5)"/><rect x="125" y="150" width="5" height="5" transform="rotate(0,127.5,152.5)"/><rect x="130" y="150" width="5" height="5" transform="rotate(0,132.5,152.5)"/><rect x="135" y="150" width="5" height="5" transform="rotate(0,137.5,152.5)"/><rect x="150" y="150" width="5" height="5" transform="rotate(0,152.5,152.5)"/><rect x="160" y="150" width="5" height="5" transform="rotate(0,162.5,152.5)"/><rect x="170" y="150" width="5" height="5" transform="rotate(0,172.5,152.5)"/><rect x="185" y="150" width="5" height="5" transform="rotate(0,187.5,152.5)"/><rect x="190" y="150" width="5" height="5" transform="rotate(0,192.5,152.5)"/><rect x="195" y="150" width="5" height="5" transform="rotate(0,197.5,152.5)"/><rect x="200" y="150" width="5" height="5" transform="rotate(0,202.5,152.5)"/><rect x="205" y="150" width="5" height="5" transform="rotate(0,207.5,152.5)"/><rect x="25" y="155" width="5" height="5" transform="rotate(0,27.5,157.5)"/><rect x="40" y="155" width="5" height="5" transform="rotate(0,42.5,157.5)"/><rect x="45" y="155" width="5" height="5" transform="rotate(0,47.5,157.5)"/><rect x="70" y="155" width="5" height="5" transform="rotate(0,72.5,157.5)"/><rect x="75" y="155" width="5" height="5" transform="rotate(0,77.5,157.5)"/><rect x="80" y="155" width="5" height="5" transform="rotate(0,82.5,157.5)"/><rect x="85" y="155" width="5" height="5" transform="rotate(0,87.5,157.5)"/><rect x="110" y="155" width="5" height="5" transform="rotate(0,112.5,157.5)"/><rect x="115" y="155" width="5" height="5" transform="rotate(0,117.5,157.5)"/><rect x="125" y="155" width="5" height="5" transform="rotate(0,127.5,157.5)"/><rect x="130" y="155" width="5" height="5" transform="rotate(0,132.5,157.5)"/><rect x="140" y="155" width="5" height="5" transform="rotate(0,142.5,157.5)"/><rect x="145" y="155" width="5" height="5" transform="rotate(0,147.5,157.5)"/><rect x="150" y="155" width="5" height="5" transform="rotate(0,152.5,157.5)"/><rect x="155" y="155" width="5" height="5" transform="rotate(0,157.5,157.5)"/><rect x="160" y="155" width="5" height="5" transform="rotate(0,162.5,157.5)"/><rect x="165" y="155" width="5" height="5" transform="rotate(0,167.5,157.5)"/><rect x="175" y="155" width="5" height="5" transform="rotate(0,177.5,157.5)"/><rect x="180" y="155" width="5" height="5" transform="rotate(0,182.5,157.5)"/><rect x="185" y="155" width="5" height="5" transform="rotate(0,187.5,157.5)"/><rect x="200" y="155" width="5" height="5" transform="rotate(0,202.5,157.5)"/><rect x="205" y="155" width="5" height="5" transform="rotate(0,207.5,157.5)"/><rect x="210" y="155" width="5" height="5" transform="rotate(0,212.5,157.5)"/><rect x="215" y="155" width="5" height="5" transform="rotate(0,217.5,157.5)"/><rect x="225" y="155" width="5" height="5" transform="rotate(0,227.5,157.5)"/><rect x="230" y="155" width="5" height="5" transform="rotate(0,232.5,157.5)"/><rect x="15" y="160" width="5" height="5" transform="rotate(0,17.5,162.5)"/><rect x="25" y="160" width="5" height="5" transform="rotate(0,27.5,162.5)"/><rect x="40" y="160" width="5" height="5" transform="rotate(0,42.5,162.5)"/><rect x="50" y="160" width="5" height="5" transform="rotate(0,52.5,162.5)"/><rect x="60" y="160" width="5" height="5" transform="rotate(0,62.5,162.5)"/><rect x="70" y="160" width="5" height="5" transform="rotate(0,72.5,162.5)"/><rect x="75" y="160" width="5" height="5" transform="rotate(0,77.5,162.5)"/><rect x="90" y="160" width="5" height="5" transform="rotate(0,92.5,162.5)"/><rect x="110" y="160" width="5" height="5" transform="rotate(0,112.5,162.5)"/><rect x="125" y="160" width="5" height="5" transform="rotate(0,127.5,162.5)"/><rect x="140" y="160" width="5" height="5" transform="rotate(0,142.5,162.5)"/><rect x="155" y="160" width="5" height="5" transform="rotate(0,157.5,162.5)"/><rect x="160" y="160" width="5" height="5" transform="rotate(0,162.5,162.5)"/><rect x="165" y="160" width="5" height="5" transform="rotate(0,167.5,162.5)"/><rect x="170" y="160" width="5" height="5" transform="rotate(0,172.5,162.5)"/><rect x="190" y="160" width="5" height="5" transform="rotate(0,192.5,162.5)"/><rect x="195" y="160" width="5" height="5" transform="rotate(0,197.5,162.5)"/><rect x="200" y="160" width="5" height="5" transform="rotate(0,202.5,162.5)"/><rect x="230" y="160" width="5" height="5" transform="rotate(0,232.5,162.5)"/><rect x="25" y="165" width="5" height="5" transform="rotate(0,27.5,167.5)"/><rect x="40" y="165" width="5" height="5" transform="rotate(0,42.5,167.5)"/><rect x="45" y="165" width="5" height="5" transform="rotate(0,47.5,167.5)"/><rect x="50" y="165" width="5" height="5" transform="rotate(0,52.5,167.5)"/><rect x="55" y="165" width="5" height="5" transform="rotate(0,57.5,167.5)"/><rect x="60" y="165" width="5" height="5" transform="rotate(0,62.5,167.5)"/><rect x="65" y="165" width="5" height="5" transform="rotate(0,67.5,167.5)"/><rect x="75" y="165" width="5" height="5" transform="rotate(0,77.5,167.5)"/><rect x="95" y="165" width="5" height="5" transform="rotate(0,97.5,167.5)"/><rect x="100" y="165" width="5" height="5" transform="rotate(0,102.5,167.5)"/><rect x="105" y="165" width="5" height="5" transform="rotate(0,107.5,167.5)"/><rect x="110" y="165" width="5" height="5" transform="rotate(0,112.5,167.5)"/><rect x="115" y="165" width="5" height="5" transform="rotate(0,117.5,167.5)"/><rect x="120" y="165" width="5" height="5" transform="rotate(0,122.5,167.5)"/><rect x="130" y="165" width="5" height="5" transform="rotate(0,132.5,167.5)"/><rect x="140" y="165" width="5" height="5" transform="rotate(0,142.5,167.5)"/><rect x="150" y="165" width="5" height="5" transform="rotate(0,152.5,167.5)"/><rect x="180" y="165" width="5" height="5" transform="rotate(0,182.5,167.5)"/><rect x="190" y="165" width="5" height="5" transform="rotate(0,192.5,167.5)"/><rect x="195" y="165" width="5" height="5" transform="rotate(0,197.5,167.5)"/><rect x="200" y="165" width="5" height="5" transform="rotate(0,202.5,167.5)"/><rect x="205" y="165" width="5" height="5" transform="rotate(0,207.5,167.5)"/><rect x="215" y="165" width="5" height="5" transform="rotate(0,217.5,167.5)"/><rect x="220" y="165" width="5" height="5" transform="rotate(0,222.5,167.5)"/><rect x="225" y="165" width="5" height="5" transform="rotate(0,227.5,167.5)"/><rect x="230" y="165" width="5" height="5" transform="rotate(0,232.5,167.5)"/><rect x="235" y="165" width="5" height="5" transform="rotate(0,237.5,167.5)"/><rect x="15" y="170" width="5" height="5" transform="rotate(0,17.5,172.5)"/><rect x="25" y="170" width="5" height="5" transform="rotate(0,27.5,172.5)"/><rect x="35" y="170" width="5" height="5" transform="rotate(0,37.5,172.5)"/><rect x="50" y="170" width="5" height="5" transform="rotate(0,52.5,172.5)"/><rect x="55" y="170" width="5" height="5" transform="rotate(0,57.5,172.5)"/><rect x="65" y="170" width="5" height="5" transform="rotate(0,67.5,172.5)"/><rect x="70" y="170" width="5" height="5" transform="rotate(0,72.5,172.5)"/><rect x="90" y="170" width="5" height="5" transform="rotate(0,92.5,172.5)"/><rect x="115" y="170" width="5" height="5" transform="rotate(0,117.5,172.5)"/><rect x="125" y="170" width="5" height="5" transform="rotate(0,127.5,172.5)"/><rect x="130" y="170" width="5" height="5" transform="rotate(0,132.5,172.5)"/><rect x="135" y="170" width="5" height="5" transform="rotate(0,137.5,172.5)"/><rect x="155" y="170" width="5" height="5" transform="rotate(0,157.5,172.5)"/><rect x="175" y="170" width="5" height="5" transform="rotate(0,177.5,172.5)"/><rect x="190" y="170" width="5" height="5" transform="rotate(0,192.5,172.5)"/><rect x="195" y="170" width="5" height="5" transform="rotate(0,197.5,172.5)"/><rect x="205" y="170" width="5" height="5" transform="rotate(0,207.5,172.5)"/><rect x="215" y="170" width="5" height="5" transform="rotate(0,217.5,172.5)"/><rect x="230" y="170" width="5" height="5" transform="rotate(0,232.5,172.5)"/><rect x="235" y="170" width="5" height="5" transform="rotate(0,237.5,172.5)"/><rect x="15" y="175" width="5" height="5" transform="rotate(0,17.5,177.5)"/><rect x="25" y="175" width="5" height="5" transform="rotate(0,27.5,177.5)"/><rect x="30" y="175" width="5" height="5" transform="rotate(0,32.5,177.5)"/><rect x="40" y="175" width="5" height="5" transform="rotate(0,42.5,177.5)"/><rect x="45" y="175" width="5" height="5" transform="rotate(0,47.5,177.5)"/><rect x="50" y="175" width="5" height="5" transform="rotate(0,52.5,177.5)"/><rect x="55" y="175" width="5" height="5" transform="rotate(0,57.5,177.5)"/><rect x="65" y="175" width="5" height="5" transform="rotate(0,67.5,177.5)"/><rect x="70" y="175" width="5" height="5" transform="rotate(0,72.5,177.5)"/><rect x="80" y="175" width="5" height="5" transform="rotate(0,82.5,177.5)"/><rect x="85" y="175" width="5" height="5" transform="rotate(0,87.5,177.5)"/><rect x="90" y="175" width="5" height="5" transform="rotate(0,92.5,177.5)"/><rect x="100" y="175" width="5" height="5" transform="rotate(0,102.5,177.5)"/><rect x="110" y="175" width="5" height="5" transform="rotate(0,112.5,177.5)"/><rect x="115" y="175" width="5" height="5" transform="rotate(0,117.5,177.5)"/><rect x="145" y="175" width="5" height="5" transform="rotate(0,147.5,177.5)"/><rect x="150" y="175" width="5" height="5" transform="rotate(0,152.5,177.5)"/><rect x="155" y="175" width="5" height="5" transform="rotate(0,157.5,177.5)"/><rect x="160" y="175" width="5" height="5" transform="rotate(0,162.5,177.5)"/><rect x="165" y="175" width="5" height="5" transform="rotate(0,167.5,177.5)"/><rect x="170" y="175" width="5" height="5" transform="rotate(0,172.5,177.5)"/><rect x="180" y="175" width="5" height="5" transform="rotate(0,182.5,177.5)"/><rect x="185" y="175" width="5" height="5" transform="rotate(0,187.5,177.5)"/><rect x="190" y="175" width="5" height="5" transform="rotate(0,192.5,177.5)"/><rect x="200" y="175" width="5" height="5" transform="rotate(0,202.5,177.5)"/><rect x="205" y="175" width="5" height="5" transform="rotate(0,207.5,177.5)"/><rect x="225" y="175" width="5" height="5" transform="rotate(0,227.5,177.5)"/><rect x="15" y="180" width="5" height="5" transform="rotate(0,17.5,182.5)"/><rect x="20" y="180" width="5" height="5" transform="rotate(0,22.5,182.5)"/><rect x="40" y="180" width="5" height="5" transform="rotate(0,42.5,182.5)"/><rect x="50" y="180" width="5" height="5" transform="rotate(0,52.5,182.5)"/><rect x="55" y="180" width="5" height="5" transform="rotate(0,57.5,182.5)"/><rect x="75" y="180" width="5" height="5" transform="rotate(0,77.5,182.5)"/><rect x="95" y="180" width="5" height="5" transform="rotate(0,97.5,182.5)"/><rect x="100" y="180" width="5" height="5" transform="rotate(0,102.5,182.5)"/><rect x="105" y="180" width="5" height="5" transform="rotate(0,107.5,182.5)"/><rect x="140" y="180" width="5" height="5" transform="rotate(0,142.5,182.5)"/><rect x="150" y="180" width="5" height="5" transform="rotate(0,152.5,182.5)"/><rect x="165" y="180" width="5" height="5" transform="rotate(0,167.5,182.5)"/><rect x="175" y="180" width="5" height="5" transform="rotate(0,177.5,182.5)"/><rect x="180" y="180" width="5" height="5" transform="rotate(0,182.5,182.5)"/><rect x="200" y="180" width="5" height="5" transform="rotate(0,202.5,182.5)"/><rect x="205" y="180" width="5" height="5" transform="rotate(0,207.5,182.5)"/><rect x="230" y="180" width="5" height="5" transform="rotate(0,232.5,182.5)"/><rect x="235" y="180" width="5" height="5" transform="rotate(0,237.5,182.5)"/><rect x="35" y="185" width="5" height="5" transform="rotate(0,37.5,187.5)"/><rect x="45" y="185" width="5" height="5" transform="rotate(0,47.5,187.5)"/><rect x="60" y="185" width="5" height="5" transform="rotate(0,62.5,187.5)"/><rect x="75" y="185" width="5" height="5" transform="rotate(0,77.5,187.5)"/><rect x="90" y="185" width="5" height="5" transform="rotate(0,92.5,187.5)"/><rect x="95" y="185" width="5" height="5" transform="rotate(0,97.5,187.5)"/><rect x="100" y="185" width="5" height="5" transform="rotate(0,102.5,187.5)"/><rect x="105" y="185" width="5" height="5" transform="rotate(0,107.5,187.5)"/><rect x="115" y="185" width="5" height="5" transform="rotate(0,117.5,187.5)"/><rect x="120" y="185" width="5" height="5" transform="rotate(0,122.5,187.5)"/><rect x="140" y="185" width="5" height="5" transform="rotate(0,142.5,187.5)"/><rect x="165" y="185" width="5" height="5" transform="rotate(0,167.5,187.5)"/><rect x="185" y="185" width="5" height="5" transform="rotate(0,187.5,187.5)"/><rect x="190" y="185" width="5" height="5" transform="rotate(0,192.5,187.5)"/><rect x="195" y="185" width="5" height="5" transform="rotate(0,197.5,187.5)"/><rect x="205" y="185" width="5" height="5" transform="rotate(0,207.5,187.5)"/><rect x="210" y="185" width="5" height="5" transform="rotate(0,212.5,187.5)"/><rect x="215" y="185" width="5" height="5" transform="rotate(0,217.5,187.5)"/><rect x="225" y="185" width="5" height="5" transform="rotate(0,227.5,187.5)"/><rect x="230" y="185" width="5" height="5" transform="rotate(0,232.5,187.5)"/><rect x="235" y="185" width="5" height="5" transform="rotate(0,237.5,187.5)"/><rect x="20" y="190" width="5" height="5" transform="rotate(0,22.5,192.5)"/><rect x="25" y="190" width="5" height="5" transform="rotate(0,27.5,192.5)"/><rect x="30" y="190" width="5" height="5" transform="rotate(0,32.5,192.5)"/><rect x="35" y="190" width="5" height="5" transform="rotate(0,37.5,192.5)"/><rect x="55" y="190" width="5" height="5" transform="rotate(0,57.5,192.5)"/><rect x="65" y="190" width="5" height="5" transform="rotate(0,67.5,192.5)"/><rect x="80" y="190" width="5" height="5" transform="rotate(0,82.5,192.5)"/><rect x="105" y="190" width="5" height="5" transform="rotate(0,107.5,192.5)"/><rect x="110" y="190" width="5" height="5" transform="rotate(0,112.5,192.5)"/><rect x="120" y="190" width="5" height="5" transform="rotate(0,122.5,192.5)"/><rect x="125" y="190" width="5" height="5" transform="rotate(0,127.5,192.5)"/><rect x="130" y="190" width="5" height="5" transform="rotate(0,132.5,192.5)"/><rect x="140" y="190" width="5" height="5" transform="rotate(0,142.5,192.5)"/><rect x="145" y="190" width="5" height="5" transform="rotate(0,147.5,192.5)"/><rect x="150" y="190" width="5" height="5" transform="rotate(0,152.5,192.5)"/><rect x="160" y="190" width="5" height="5" transform="rotate(0,162.5,192.5)"/><rect x="165" y="190" width="5" height="5" transform="rotate(0,167.5,192.5)"/><rect x="170" y="190" width="5" height="5" transform="rotate(0,172.5,192.5)"/><rect x="190" y="190" width="5" height="5" transform="rotate(0,192.5,192.5)"/><rect x="195" y="190" width="5" height="5" transform="rotate(0,197.5,192.5)"/><rect x="200" y="190" width="5" height="5" transform="rotate(0,202.5,192.5)"/><rect x="205" y="190" width="5" height="5" transform="rotate(0,207.5,192.5)"/><rect x="220" y="190" width="5" height="5" transform="rotate(0,222.5,192.5)"/><rect x="235" y="190" width="5" height="5" transform="rotate(0,237.5,192.5)"/><rect x="15" y="195" width="5" height="5" transform="rotate(0,17.5,197.5)"/><rect x="30" y="195" width="5" height="5" transform="rotate(0,32.5,197.5)"/><rect x="35" y="195" width="5" height="5" transform="rotate(0,37.5,197.5)"/><rect x="45" y="195" width="5" height="5" transform="rotate(0,47.5,197.5)"/><rect x="75" y="195" width="5" height="5" transform="rotate(0,77.5,197.5)"/><rect x="100" y="195" width="5" height="5" transform="rotate(0,102.5,197.5)"/><rect x="115" y="195" width="5" height="5" transform="rotate(0,117.5,197.5)"/><rect x="120" y="195" width="5" height="5" transform="rotate(0,122.5,197.5)"/><rect x="125" y="195" width="5" height="5" transform="rotate(0,127.5,197.5)"/><rect x="130" y="195" width="5" height="5" transform="rotate(0,132.5,197.5)"/><rect x="135" y="195" width="5" height="5" transform="rotate(0,137.5,197.5)"/><rect x="165" y="195" width="5" height="5" transform="rotate(0,167.5,197.5)"/><rect x="170" y="195" width="5" height="5" transform="rotate(0,172.5,197.5)"/><rect x="175" y="195" width="5" height="5" transform="rotate(0,177.5,197.5)"/><rect x="185" y="195" width="5" height="5" transform="rotate(0,187.5,197.5)"/><rect x="195" y="195" width="5" height="5" transform="rotate(0,197.5,197.5)"/><rect x="200" y="195" width="5" height="5" transform="rotate(0,202.5,197.5)"/><rect x="205" y="195" width="5" height="5" transform="rotate(0,207.5,197.5)"/><rect x="210" y="195" width="5" height="5" transform="rotate(0,212.5,197.5)"/><rect x="215" y="195" width="5" height="5" transform="rotate(0,217.5,197.5)"/><rect x="220" y="195" width="5" height="5" transform="rotate(0,222.5,197.5)"/><rect x="230" y="195" width="5" height="5" transform="rotate(0,232.5,197.5)"/><rect x="55" y="200" width="5" height="5" transform="rotate(0,57.5,202.5)"/><rect x="65" y="200" width="5" height="5" transform="rotate(0,67.5,202.5)"/><rect x="80" y="200" width="5" height="5" transform="rotate(0,82.5,202.5)"/><rect x="85" y="200" width="5" height="5" transform="rotate(0,87.5,202.5)"/><rect x="90" y="200" width="5" height="5" transform="rotate(0,92.5,202.5)"/><rect x="100" y="200" width="5" height="5" transform="rotate(0,102.5,202.5)"/><rect x="105" y="200" width="5" height="5" transform="rotate(0,107.5,202.5)"/><rect x="110" y="200" width="5" height="5" transform="rotate(0,112.5,202.5)"/><rect x="115" y="200" width="5" height="5" transform="rotate(0,117.5,202.5)"/><rect x="135" y="200" width="5" height="5" transform="rotate(0,137.5,202.5)"/><rect x="145" y="200" width="5" height="5" transform="rotate(0,147.5,202.5)"/><rect x="150" y="200" width="5" height="5" transform="rotate(0,152.5,202.5)"/><rect x="155" y="200" width="5" height="5" transform="rotate(0,157.5,202.5)"/><rect x="160" y="200" width="5" height="5" transform="rotate(0,162.5,202.5)"/><rect x="175" y="200" width="5" height="5" transform="rotate(0,177.5,202.5)"/><rect x="180" y="200" width="5" height="5" transform="rotate(0,182.5,202.5)"/><rect x="185" y="200" width="5" height="5" transform="rotate(0,187.5,202.5)"/><rect x="195" y="200" width="5" height="5" transform="rotate(0,197.5,202.5)"/><rect x="215" y="200" width="5" height="5" transform="rotate(0,217.5,202.5)"/><rect x="220" y="200" width="5" height="5" transform="rotate(0,222.5,202.5)"/><rect x="235" y="200" width="5" height="5" transform="rotate(0,237.5,202.5)"/><rect x="75" y="205" width="5" height="5" transform="rotate(0,77.5,207.5)"/><rect x="80" y="205" width="5" height="5" transform="rotate(0,82.5,207.5)"/><rect x="115" y="205" width="5" height="5" transform="rotate(0,117.5,207.5)"/><rect x="125" y="205" width="5" height="5" transform="rotate(0,127.5,207.5)"/><rect x="135" y="205" width="5" height="5" transform="rotate(0,137.5,207.5)"/><rect x="140" y="205" width="5" height="5" transform="rotate(0,142.5,207.5)"/><rect x="150" y="205" width="5" height="5" transform="rotate(0,152.5,207.5)"/><rect x="160" y="205" width="5" height="5" transform="rotate(0,162.5,207.5)"/><rect x="170" y="205" width="5" height="5" transform="rotate(0,172.5,207.5)"/><rect x="175" y="205" width="5" height="5" transform="rotate(0,177.5,207.5)"/><rect x="180" y="205" width="5" height="5" transform="rotate(0,182.5,207.5)"/><rect x="190" y="205" width="5" height="5" transform="rotate(0,192.5,207.5)"/><rect x="195" y="205" width="5" height="5" transform="rotate(0,197.5,207.5)"/><rect x="205" y="205" width="5" height="5" transform="rotate(0,207.5,207.5)"/><rect x="215" y="205" width="5" height="5" transform="rotate(0,217.5,207.5)"/><rect x="230" y="205" width="5" height="5" transform="rotate(0,232.5,207.5)"/><rect x="60" y="210" width="5" height="5" transform="rotate(0,62.5,212.5)"/><rect x="65" y="210" width="5" height="5" transform="rotate(0,67.5,212.5)"/><rect x="80" y="210" width="5" height="5" transform="rotate(0,82.5,212.5)"/><rect x="85" y="210" width="5" height="5" transform="rotate(0,87.5,212.5)"/><rect x="100" y="210" width="5" height="5" transform="rotate(0,102.5,212.5)"/><rect x="105" y="210" width="5" height="5" transform="rotate(0,107.5,212.5)"/><rect x="115" y="210" width="5" height="5" transform="rotate(0,117.5,212.5)"/><rect x="135" y="210" width="5" height="5" transform="rotate(0,137.5,212.5)"/><rect x="160" y="210" width="5" height="5" transform="rotate(0,162.5,212.5)"/><rect x="165" y="210" width="5" height="5" transform="rotate(0,167.5,212.5)"/><rect x="175" y="210" width="5" height="5" transform="rotate(0,177.5,212.5)"/><rect x="195" y="210" width="5" height="5" transform="rotate(0,197.5,212.5)"/><rect x="215" y="210" width="5" height="5" transform="rotate(0,217.5,212.5)"/><rect x="230" y="210" width="5" height="5" transform="rotate(0,232.5,212.5)"/><rect x="235" y="210" width="5" height="5" transform="rotate(0,237.5,212.5)"/><rect x="65" y="215" width="5" height="5" transform="rotate(0,67.5,217.5)"/><rect x="75" y="215" width="5" height="5" transform="rotate(0,77.5,217.5)"/><rect x="90" y="215" width="5" height="5" transform="rotate(0,92.5,217.5)"/><rect x="95" y="215" width="5" height="5" transform="rotate(0,97.5,217.5)"/><rect x="100" y="215" width="5" height="5" transform="rotate(0,102.5,217.5)"/><rect x="105" y="215" width="5" height="5" transform="rotate(0,107.5,217.5)"/><rect x="110" y="215" width="5" height="5" transform="rotate(0,112.5,217.5)"/><rect x="115" y="215" width="5" height="5" transform="rotate(0,117.5,217.5)"/><rect x="120" y="215" width="5" height="5" transform="rotate(0,122.5,217.5)"/><rect x="125" y="215" width="5" height="5" transform="rotate(0,127.5,217.5)"/><rect x="130" y="215" width="5" height="5" transform="rotate(0,132.5,217.5)"/><rect x="135" y="215" width="5" height="5" transform="rotate(0,137.5,217.5)"/><rect x="150" y="215" width="5" height="5" transform="rotate(0,152.5,217.5)"/><rect x="155" y="215" width="5" height="5" transform="rotate(0,157.5,217.5)"/><rect x="160" y="215" width="5" height="5" transform="rotate(0,162.5,217.5)"/><rect x="175" y="215" width="5" height="5" transform="rotate(0,177.5,217.5)"/><rect x="180" y="215" width="5" height="5" transform="rotate(0,182.5,217.5)"/><rect x="185" y="215" width="5" height="5" transform="rotate(0,187.5,217.5)"/><rect x="195" y="215" width="5" height="5" transform="rotate(0,197.5,217.5)"/><rect x="200" y="215" width="5" height="5" transform="rotate(0,202.5,217.5)"/><rect x="205" y="215" width="5" height="5" transform="rotate(0,207.5,217.5)"/><rect x="210" y="215" width="5" height="5" transform="rotate(0,212.5,217.5)"/><rect x="215" y="215" width="5" height="5" transform="rotate(0,217.5,217.5)"/><rect x="220" y="215" width="5" height="5" transform="rotate(0,222.5,217.5)"/><rect x="55" y="220" width="5" height="5" transform="rotate(0,57.5,222.5)"/><rect x="60" y="220" width="5" height="5" transform="rotate(0,62.5,222.5)"/><rect x="65" y="220" width="5" height="5" transform="rotate(0,67.5,222.5)"/><rect x="75" y="220" width="5" height="5" transform="rotate(0,77.5,222.5)"/><rect x="80" y="220" width="5" height="5" transform="rotate(0,82.5,222.5)"/><rect x="85" y="220" width="5" height="5" transform="rotate(0,87.5,222.5)"/><rect x="90" y="220" width="5" height="5" transform="rotate(0,92.5,222.5)"/><rect x="115" y="220" width="5" height="5" transform="rotate(0,117.5,222.5)"/><rect x="130" y="220" width="5" height="5" transform="rotate(0,132.5,222.5)"/><rect x="145" y="220" width="5" height="5" transform="rotate(0,147.5,222.5)"/><rect x="160" y="220" width="5" height="5" transform="rotate(0,162.5,222.5)"/><rect x="190" y="220" width="5" height="5" transform="rotate(0,192.5,222.5)"/><rect x="195" y="220" width="5" height="5" transform="rotate(0,197.5,222.5)"/><rect x="200" y="220" width="5" height="5" transform="rotate(0,202.5,222.5)"/><rect x="205" y="220" width="5" height="5" transform="rotate(0,207.5,222.5)"/><rect x="60" y="225" width="5" height="5" transform="rotate(0,62.5,227.5)"/><rect x="65" y="225" width="5" height="5" transform="rotate(0,67.5,227.5)"/><rect x="70" y="225" width="5" height="5" transform="rotate(0,72.5,227.5)"/><rect x="75" y="225" width="5" height="5" transform="rotate(0,77.5,227.5)"/><rect x="80" y="225" width="5" height="5" transform="rotate(0,82.5,227.5)"/><rect x="85" y="225" width="5" height="5" transform="rotate(0,87.5,227.5)"/><rect x="110" y="225" width="5" height="5" transform="rotate(0,112.5,227.5)"/><rect x="125" y="225" width="5" height="5" transform="rotate(0,127.5,227.5)"/><rect x="140" y="225" width="5" height="5" transform="rotate(0,142.5,227.5)"/><rect x="145" y="225" width="5" height="5" transform="rotate(0,147.5,227.5)"/><rect x="150" y="225" width="5" height="5" transform="rotate(0,152.5,227.5)"/><rect x="155" y="225" width="5" height="5" transform="rotate(0,157.5,227.5)"/><rect x="165" y="225" width="5" height="5" transform="rotate(0,167.5,227.5)"/><rect x="170" y="225" width="5" height="5" transform="rotate(0,172.5,227.5)"/><rect x="175" y="225" width="5" height="5" transform="rotate(0,177.5,227.5)"/><rect x="180" y="225" width="5" height="5" transform="rotate(0,182.5,227.5)"/><rect x="190" y="225" width="5" height="5" transform="rotate(0,192.5,227.5)"/><rect x="195" y="225" width="5" height="5" transform="rotate(0,197.5,227.5)"/><rect x="200" y="225" width="5" height="5" transform="rotate(0,202.5,227.5)"/><rect x="210" y="225" width="5" height="5" transform="rotate(0,212.5,227.5)"/><rect x="215" y="225" width="5" height="5" transform="rotate(0,217.5,227.5)"/><rect x="235" y="225" width="5" height="5" transform="rotate(0,237.5,227.5)"/><rect x="60" y="230" width="5" height="5" transform="rotate(0,62.5,232.5)"/><rect x="65" y="230" width="5" height="5" transform="rotate(0,67.5,232.5)"/><rect x="70" y="230" width="5" height="5" transform="rotate(0,72.5,232.5)"/><rect x="75" y="230" width="5" height="5" transform="rotate(0,77.5,232.5)"/><rect x="80" y="230" width="5" height="5" transform="rotate(0,82.5,232.5)"/><rect x="85" y="230" width="5" height="5" transform="rotate(0,87.5,232.5)"/><rect x="110" y="230" width="5" height="5" transform="rotate(0,112.5,232.5)"/><rect x="120" y="230" width="5" height="5" transform="rotate(0,122.5,232.5)"/><rect x="125" y="230" width="5" height="5" transform="rotate(0,127.5,232.5)"/><rect x="130" y="230" width="5" height="5" transform="rotate(0,132.5,232.5)"/><rect x="135" y="230" width="5" height="5" transform="rotate(0,137.5,232.5)"/><rect x="140" y="230" width="5" height="5" transform="rotate(0,142.5,232.5)"/><rect x="155" y="230" width="5" height="5" transform="rotate(0,157.5,232.5)"/><rect x="195" y="230" width="5" height="5" transform="rotate(0,197.5,232.5)"/><rect x="215" y="230" width="5" height="5" transform="rotate(0,217.5,232.5)"/><rect x="60" y="235" width="5" height="5" transform="rotate(0,62.5,237.5)"/><rect x="65" y="235" width="5" height="5" transform="rotate(0,67.5,237.5)"/><rect x="75" y="235" width="5" height="5" transform="rotate(0,77.5,237.5)"/><rect x="80" y="235" width="5" height="5" transform="rotate(0,82.5,237.5)"/><rect x="85" y="235" width="5" height="5" transform="rotate(0,87.5,237.5)"/><rect x="105" y="235" width="5" height="5" transform="rotate(0,107.5,237.5)"/><rect x="130" y="235" width="5" height="5" transform="rotate(0,132.5,237.5)"/><rect x="145" y="235" width="5" height="5" transform="rotate(0,147.5,237.5)"/><rect x="150" y="235" width="5" height="5" transform="rotate(0,152.5,237.5)"/><rect x="180" y="235" width="5" height="5" transform="rotate(0,182.5,237.5)"/><rect x="185" y="235" width="5" height="5" transform="rotate(0,187.5,237.5)"/><rect x="195" y="235" width="5" height="5" transform="rotate(0,197.5,237.5)"/><rect x="200" y="235" width="5" height="5" transform="rotate(0,202.5,237.5)"/><rect x="205" y="235" width="5" height="5" transform="rotate(0,207.5,237.5)"/><rect x="210" y="235" width="5" height="5" transform="rotate(0,212.5,237.5)"/><rect x="220" y="235" width="5" height="5" transform="rotate(0,222.5,237.5)"/><rect x="230" y="235" width="5" height="5" transform="rotate(0,232.5,237.5)"/></clipPath><clipPath id="clip-path-corners-square-color-0-0-4"><path clip-rule="evenodd" d="M 15 15v 35h 35v -35zM 20 20h 25v 25h -25z" transform="rotate(0,32.5,32.5)"/></clipPath><clipPath id="clip-path-corners-dot-color-0-0-4"><rect x="25" y="25" width="5" height="5" transform="rotate(0,27.5,27.5)"/><rect x="30" y="25" width="5" height="5" transform="rotate(0,32.5,27.5)"/><rect x="35" y="25" width="5" height="5" transform="rotate(0,37.5,27.5)"/><rect x="25" y="30" width="5" height="5" transform="rotate(0,27.5,32.5)"/><rect x="30" y="30" width="5" height="5" transform="rotate(0,32.5,32.5)"/><rect x="35" y="30" width="5" height="5" transform="rotate(0,37.5,32.5)"/><rect x="25" y="35" width="5" height="5" transform="rotate(0,27.5,37.5)"/><rect x="30" y="35" width="5" height="5" transform="rotate(0,32.5,37.5)"/><rect x="35" y="35" width="5" height="5" transform="rotate(0,37.5,37.5)"/></clipPath><clipPath id="clip-path-corners-square-color-1-0-4"><path clip-rule="evenodd" d="M 205 15v 35h 35v -35zM 210 20h 25v 25h -25z" transform="rotate(90,222.5,32.5)"/></clipPath><clipPath id="clip-path-corners-dot-color-1-0-4"><rect x="215" y="25" width="5" height="5" transform="rotate(0,217.5,27.5)"/><rect x="220" y="25" width="5" height="5" transform="rotate(0,222.5,27.5)"/><rect x="225" y="25" width="5" height="5" transform="rotate(0,227.5,27.5)"/><rect x="215" y="30" width="5" height="5" transform="rotate(0,217.5,32.5)"/><rect x="220" y="30" width="5" height="5" transform="rotate(0,222.5,32.5)"/><rect x="225" y="30" width="5" height="5" transform="rotate(0,227.5,32.5)"/><rect x="215" y="35" width="5" height="5" transform="rotate(0,217.5,37.5)"/><rect x="220" y="35" width="5" height="5" transform="rotate(0,222.5,37.5)"/><rect x="225" y="35" width="5" height="5" transform="rotate(0,227.5,37.5)"/></clipPath><clipPath id="clip-path-corners-square-color-0-1-4"><path clip-rule="evenodd" d="M 15 205v 35h 35v -35zM 20 210h 25v 25h -25z" transform="rotate(-90,32.5,222.5)"/></clipPath><clipPath id="clip-path-corners-dot-color-0-1-4"><rect x="25" y="215" width="5" height="5" transform="rotate(0,27.5,217.5)"/><rect x="30" y="215" width="5" height="5" transform="rotate(0,32.5,217.5)"/><rect x="35" y="215" width="5" height="5" transform="rotate(0,37.5,217.5)"/><rect x="25" y="220" width="5" height="5" transform="rotate(0,27.5,222.5)"/><rect x="30" y="220" width="5" height="5" transform="rotate(0,32.5,222.5)"/><rect x="35" y="220" width="5" height="5" transform="rotate(0,37.5,222.5)"/><rect x="25" y="225" width="5" height="5" transform="rotate(0,27.5,227.5)"/><rect x="30" y="225" width="5" height="5" transform="rotate(0,32.5,227.5)"/><rect x="35" y="225" width="5" height="5" transform="rotate(0,37.5,227.5)"/></clipPath></defs><rect x="0" y="0" height="256" width="256" clip-path="url('#clip-path-background-color-4')" fill="#FFFFFF"/><rect x="0" y="0" height="256" width="256" clip-path="url('#clip-path-dot-color-4')" fill="#000000"/><rect x="15" y="15" height="35" width="35" clip-path="url('#clip-path-corners-square-color-0-0-4')" fill="#000000"/><rect x="25" y="25" height="15" width="15" clip-path="url('#clip-path-corners-dot-color-0-0-4')" fill="#000000"/><rect x="205" y="15" height="35" width="35" clip-path="url('#clip-path-corners-square-color-1-0-4')" fill="#000000"/><rect x="215" y="25" height="15" width="15" clip-path="url('#clip-path-corners-dot-color-1-0-4')" fill="#000000"/><rect x="15" y="205" height="35" width="35" clip-path="url('#clip-path-corners-square-color-0-1-4')" fill="#000000"/><rect x="25" y="215" height="15" width="15" clip-path="url('#clip-path-corners-dot-color-0-1-4')" fill="#000000"/></svg>